<svg width="50" height="50" viewBox="0 0 50 50" fill="none" xmlns="http://www.w3.org/2000/svg">
<path fill-rule="evenodd" clip-rule="evenodd" d="M4.85304 21.175C5.0387 20.8054 5.36337 20.5244 5.75586 20.3938C6.14835 20.2631 6.57663 20.2935 6.94679 20.4781L24.9999 29.5L43.0499 20.475C43.2335 20.3812 43.4339 20.3247 43.6395 20.3087C43.8451 20.2927 44.0518 20.3175 44.2478 20.3818C44.4437 20.4461 44.625 20.5485 44.7811 20.6832C44.9373 20.8178 45.0653 20.9821 45.1576 21.1664C45.25 21.3508 45.305 21.5516 45.3194 21.7573C45.3338 21.963 45.3074 22.1695 45.2416 22.365C45.1758 22.5604 45.072 22.7409 44.9361 22.896C44.8002 23.0511 44.635 23.1778 44.4499 23.2688L25.6999 32.6438C25.4826 32.7526 25.2429 32.8093 24.9999 32.8093C24.7569 32.8093 24.5172 32.7526 24.2999 32.6438L5.54991 23.2688C5.18026 23.0831 4.89932 22.7584 4.76868 22.3659C4.63805 21.9734 4.66838 21.5452 4.85304 21.175Z" fill="#3D3D3D"/>
</svg>
