<svg width="23" height="29" viewBox="0 0 23 29" fill="none" xmlns="http://www.w3.org/2000/svg">
<path d="M3.25 28.25C2.49375 28.25 1.84658 27.981 1.3085 27.4429C0.7695 26.9039 0.5 26.2563 0.5 25.5V3.5C0.5 2.74375 0.7695 2.09612 1.3085 1.55712C1.84658 1.01904 2.49375 0.75 3.25 0.75H19.75C20.5063 0.75 21.1539 1.01904 21.6929 1.55712C22.231 2.09612 22.5 2.74375 22.5 3.5V25.5C22.5 26.2563 22.231 26.9039 21.6929 27.4429C21.1539 27.981 20.5063 28.25 19.75 28.25H3.25ZM11.1562 12.5063L13.5625 11.0625L15.9688 12.5063C16.1979 12.6438 16.4271 12.6438 16.6562 12.5063C16.8854 12.3688 17 12.174 17 11.9219V3.5H10.125V11.9219C10.125 12.174 10.2396 12.3688 10.4688 12.5063C10.6979 12.6438 10.9271 12.6438 11.1562 12.5063Z" fill="#00D1C7"/>
</svg>
