<svg width="29" height="25" viewBox="0 0 29 25" fill="none" xmlns="http://www.w3.org/2000/svg">
<path d="M14.3636 24.3636L2.68182 12.6818C1.75 11.75 1.12879 10.6667 0.818182 9.43182C0.515152 8.19697 0.518939 6.9697 0.829545 5.75C1.14015 4.52273 1.75758 3.45454 2.68182 2.54545C3.62879 1.61364 4.70833 0.996211 5.92045 0.693182C7.14015 0.382575 8.35606 0.382575 9.56818 0.693182C10.7879 1.00379 11.8712 1.62121 12.8182 2.54545L14.3636 4.04545L15.9091 2.54545C16.8636 1.62121 17.947 1.00379 19.1591 0.693182C20.3712 0.382575 21.5833 0.382575 22.7955 0.693182C24.0152 0.996211 25.0985 1.61364 26.0455 2.54545C26.9697 3.45454 27.5871 4.52273 27.8977 5.75C28.2083 6.9697 28.2083 8.19697 27.8977 9.43182C27.5947 10.6667 26.9773 11.75 26.0455 12.6818L14.3636 24.3636Z" fill="#00D1C7"/>
</svg>
