<svg width="25" height="24" viewBox="0 0 25 24" fill="none" xmlns="http://www.w3.org/2000/svg">
<path d="M12.8594 0.123535C6.16992 0.123535 0.75 5.32752 0.75 11.7505C0.75 18.1734 6.16992 23.3774 12.8594 23.3774C19.5488 23.3774 24.9688 18.1734 24.9688 11.7505C24.9688 5.32752 19.5488 0.123535 12.8594 0.123535ZM15.6475 16.5372L11.3408 13.532C11.1895 13.4242 11.1016 13.2554 11.1016 13.0772V5.18688C11.1016 4.87745 11.3652 4.62428 11.6875 4.62428H14.0312C14.3535 4.62428 14.6172 4.87745 14.6172 5.18688V11.6426L17.7178 13.8086C17.9814 13.9915 18.0352 14.3431 17.8447 14.5962L16.4678 16.4153C16.2773 16.6638 15.9111 16.72 15.6475 16.5372Z" fill="#00D1C7"/>
</svg>
