<svg width="29" height="26" viewBox="0 0 29 26" fill="none" xmlns="http://www.w3.org/2000/svg">
<path d="M13.8598 12.7213C14.2122 13.097 14.7862 13.097 15.1436 12.7213L20.6261 6.92229C22.217 5.23642 22.1264 2.44357 20.3442 0.889729C18.7936 -0.466073 16.4828 -0.222334 15.0631 1.28073L14.4992 1.87484L13.9404 1.28581C12.5207 -0.222334 10.2099 -0.466073 8.65924 0.889729C6.88209 2.44357 6.78643 5.23642 8.37732 6.92229L13.8598 12.7213ZM28.4597 16.6617C27.8657 16.1184 26.9393 16.1539 26.315 16.6617L21.6632 20.4143C21.0943 20.8764 20.3845 21.1252 19.6494 21.1252H13.6937C13.2507 21.1252 12.8882 20.7596 12.8882 20.3127C12.8882 19.8659 13.2507 19.5003 13.6937 19.5003H17.6357C18.4361 19.5003 19.1812 18.9468 19.3121 18.1495C19.4783 17.134 18.703 16.2504 17.7212 16.2504H9.66613C8.30683 16.2504 6.99284 16.7227 5.93561 17.5859L3.59459 19.5003H0.805511C0.36248 19.5003 0 19.8659 0 20.3127V25.1875C0 25.6344 0.36248 26 0.805511 26H18.7684C19.4984 26 20.2083 25.7512 20.7822 25.2891L28.3943 19.1448C29.1595 18.5304 29.2199 17.3523 28.4597 16.6617Z" fill="#00D1C7"/>
</svg>
